<mxfile host="Electron" modified="2023-07-30T16:26:25.299Z" agent="Mozilla/5.0 (Windows NT 10.0; Win64; x64) AppleWebKit/537.36 (KHTML, like Gecko) draw.io/21.6.1 Chrome/112.0.5615.204 Electron/24.6.1 Safari/537.36" etag="JME27GzhL8mvaoezJB4V" version="21.6.1" type="device">
  <diagram name="Page-1" id="NTjiGH4Cz_g98eemZZYS">
    <mxGraphModel dx="1101" dy="991" grid="1" gridSize="10" guides="1" tooltips="1" connect="1" arrows="1" fold="1" page="1" pageScale="1" pageWidth="850" pageHeight="1100" math="0" shadow="0">
      <root>
        <mxCell id="0" />
        <mxCell id="1" parent="0" />
        <mxCell id="1DaiOdLd6T580_-Mj7Hy-2" value="docker image" style="rounded=0;whiteSpace=wrap;html=1;align=right;verticalAlign=bottom;fillColor=none;dashed=1;" parent="1" vertex="1">
          <mxGeometry x="250" y="370" width="550" height="180" as="geometry" />
        </mxCell>
        <mxCell id="1DaiOdLd6T580_-Mj7Hy-17" style="edgeStyle=orthogonalEdgeStyle;rounded=0;orthogonalLoop=1;jettySize=auto;html=1;entryX=1;entryY=0.5;entryDx=0;entryDy=0;startArrow=classic;startFill=1;" parent="1" source="1DaiOdLd6T580_-Mj7Hy-8" target="1DaiOdLd6T580_-Mj7Hy-13" edge="1">
          <mxGeometry relative="1" as="geometry" />
        </mxCell>
        <mxCell id="1DaiOdLd6T580_-Mj7Hy-8" value="node" style="rounded=0;whiteSpace=wrap;html=1;verticalAlign=bottom;align=right;" parent="1" vertex="1">
          <mxGeometry x="290" y="410" width="120" height="90" as="geometry" />
        </mxCell>
        <mxCell id="1DaiOdLd6T580_-Mj7Hy-4" style="edgeStyle=orthogonalEdgeStyle;rounded=0;orthogonalLoop=1;jettySize=auto;html=1;exitX=0.5;exitY=1;exitDx=0;exitDy=0;" parent="1" edge="1">
          <mxGeometry relative="1" as="geometry">
            <mxPoint x="415" y="500" as="sourcePoint" />
            <mxPoint x="415" y="500" as="targetPoint" />
          </mxGeometry>
        </mxCell>
        <mxCell id="1DaiOdLd6T580_-Mj7Hy-19" style="edgeStyle=orthogonalEdgeStyle;rounded=0;orthogonalLoop=1;jettySize=auto;html=1;entryX=0;entryY=0.5;entryDx=0;entryDy=0;startArrow=classic;startFill=1;" parent="1" source="1DaiOdLd6T580_-Mj7Hy-5" target="1DaiOdLd6T580_-Mj7Hy-7" edge="1">
          <mxGeometry relative="1" as="geometry" />
        </mxCell>
        <mxCell id="1DaiOdLd6T580_-Mj7Hy-5" value="venv" style="rounded=0;whiteSpace=wrap;html=1;verticalAlign=bottom;align=right;" parent="1" vertex="1">
          <mxGeometry x="440" y="410" width="120" height="90" as="geometry" />
        </mxCell>
        <mxCell id="1DaiOdLd6T580_-Mj7Hy-6" value="backend for frontend" style="text;html=1;strokeColor=none;fillColor=none;align=center;verticalAlign=middle;whiteSpace=wrap;rounded=0;fontSize=14;" parent="1" vertex="1">
          <mxGeometry x="320" y="440" width="60" height="30" as="geometry" />
        </mxCell>
        <mxCell id="1DaiOdLd6T580_-Mj7Hy-30" style="edgeStyle=orthogonalEdgeStyle;rounded=0;orthogonalLoop=1;jettySize=auto;html=1;entryX=0.5;entryY=1;entryDx=0;entryDy=0;startArrow=classic;startFill=1;" parent="1" source="1DaiOdLd6T580_-Mj7Hy-7" target="1DaiOdLd6T580_-Mj7Hy-28" edge="1">
          <mxGeometry relative="1" as="geometry" />
        </mxCell>
        <mxCell id="1DaiOdLd6T580_-Mj7Hy-7" value="venv" style="rounded=0;whiteSpace=wrap;html=1;verticalAlign=bottom;align=right;" parent="1" vertex="1">
          <mxGeometry x="640" y="410" width="120" height="90" as="geometry" />
        </mxCell>
        <mxCell id="1DaiOdLd6T580_-Mj7Hy-9" value="backend for interpreter" style="text;html=1;strokeColor=none;fillColor=none;align=center;verticalAlign=middle;whiteSpace=wrap;rounded=0;fontSize=14;" parent="1" vertex="1">
          <mxGeometry x="470" y="440" width="60" height="30" as="geometry" />
        </mxCell>
        <mxCell id="1DaiOdLd6T580_-Mj7Hy-10" value="ipython" style="text;html=1;strokeColor=none;fillColor=none;align=center;verticalAlign=middle;whiteSpace=wrap;rounded=0;" parent="1" vertex="1">
          <mxGeometry x="670" y="500" width="60" height="30" as="geometry" />
        </mxCell>
        <mxCell id="1DaiOdLd6T580_-Mj7Hy-15" style="edgeStyle=orthogonalEdgeStyle;rounded=0;orthogonalLoop=1;jettySize=auto;html=1;entryX=0.5;entryY=0;entryDx=0;entryDy=0;startArrow=classic;startFill=1;" parent="1" source="1DaiOdLd6T580_-Mj7Hy-11" target="1DaiOdLd6T580_-Mj7Hy-5" edge="1">
          <mxGeometry relative="1" as="geometry" />
        </mxCell>
        <mxCell id="1DaiOdLd6T580_-Mj7Hy-16" style="edgeStyle=orthogonalEdgeStyle;rounded=0;orthogonalLoop=1;jettySize=auto;html=1;entryX=0.5;entryY=0;entryDx=0;entryDy=0;startArrow=classic;startFill=1;" parent="1" source="1DaiOdLd6T580_-Mj7Hy-11" target="1DaiOdLd6T580_-Mj7Hy-8" edge="1">
          <mxGeometry relative="1" as="geometry" />
        </mxCell>
        <mxCell id="1DaiOdLd6T580_-Mj7Hy-11" value="browser" style="rounded=0;whiteSpace=wrap;html=1;verticalAlign=bottom;align=right;" parent="1" vertex="1">
          <mxGeometry x="290" y="210" width="120" height="90" as="geometry" />
        </mxCell>
        <mxCell id="1DaiOdLd6T580_-Mj7Hy-12" value="user interface" style="text;html=1;strokeColor=none;fillColor=none;align=center;verticalAlign=middle;whiteSpace=wrap;rounded=0;fontSize=14;" parent="1" vertex="1">
          <mxGeometry x="320" y="240" width="60" height="30" as="geometry" />
        </mxCell>
        <mxCell id="1DaiOdLd6T580_-Mj7Hy-13" value="" style="rounded=0;whiteSpace=wrap;html=1;verticalAlign=bottom;align=right;" parent="1" vertex="1">
          <mxGeometry x="70" y="410" width="120" height="90" as="geometry" />
        </mxCell>
        <mxCell id="1DaiOdLd6T580_-Mj7Hy-14" value="large language model" style="text;html=1;strokeColor=none;fillColor=none;align=center;verticalAlign=middle;whiteSpace=wrap;rounded=0;fontSize=14;" parent="1" vertex="1">
          <mxGeometry x="100" y="440" width="60" height="30" as="geometry" />
        </mxCell>
        <mxCell id="1DaiOdLd6T580_-Mj7Hy-20" value="std. http" style="text;html=1;strokeColor=none;fillColor=none;align=left;verticalAlign=middle;whiteSpace=wrap;rounded=0;" parent="1" vertex="1">
          <mxGeometry x="360" y="330" width="40" height="30" as="geometry" />
        </mxCell>
        <mxCell id="1DaiOdLd6T580_-Mj7Hy-21" value="API" style="text;html=1;strokeColor=none;fillColor=none;align=center;verticalAlign=middle;whiteSpace=wrap;rounded=0;" parent="1" vertex="1">
          <mxGeometry x="190" y="430" width="70" height="30" as="geometry" />
        </mxCell>
        <mxCell id="1DaiOdLd6T580_-Mj7Hy-22" value="websocket" style="text;html=1;strokeColor=none;fillColor=none;align=center;verticalAlign=middle;whiteSpace=wrap;rounded=0;" parent="1" vertex="1">
          <mxGeometry x="400" y="230" width="120" height="30" as="geometry" />
        </mxCell>
        <mxCell id="1DaiOdLd6T580_-Mj7Hy-23" value="os run" style="text;html=1;strokeColor=none;fillColor=none;align=center;verticalAlign=middle;whiteSpace=wrap;rounded=0;" parent="1" vertex="1">
          <mxGeometry x="570" y="430" width="60" height="30" as="geometry" />
        </mxCell>
        <mxCell id="1DaiOdLd6T580_-Mj7Hy-25" value="Next.js" style="text;html=1;strokeColor=none;fillColor=none;align=center;verticalAlign=middle;whiteSpace=wrap;rounded=0;" parent="1" vertex="1">
          <mxGeometry x="320" y="500" width="60" height="30" as="geometry" />
        </mxCell>
        <mxCell id="1DaiOdLd6T580_-Mj7Hy-26" value="FastAPI" style="text;html=1;strokeColor=none;fillColor=none;align=center;verticalAlign=middle;whiteSpace=wrap;rounded=0;" parent="1" vertex="1">
          <mxGeometry x="470" y="500" width="60" height="30" as="geometry" />
        </mxCell>
        <mxCell id="1DaiOdLd6T580_-Mj7Hy-27" value="interpreter" style="text;html=1;strokeColor=none;fillColor=none;align=center;verticalAlign=middle;whiteSpace=wrap;rounded=0;fontSize=14;" parent="1" vertex="1">
          <mxGeometry x="670" y="440" width="60" height="30" as="geometry" />
        </mxCell>
        <mxCell id="1DaiOdLd6T580_-Mj7Hy-28" value="folder" style="rounded=0;whiteSpace=wrap;html=1;verticalAlign=bottom;align=right;" parent="1" vertex="1">
          <mxGeometry x="640" y="210" width="120" height="90" as="geometry" />
        </mxCell>
        <mxCell id="1DaiOdLd6T580_-Mj7Hy-29" value="working directory" style="text;html=1;strokeColor=none;fillColor=none;align=center;verticalAlign=middle;whiteSpace=wrap;rounded=0;fontSize=14;" parent="1" vertex="1">
          <mxGeometry x="670" y="240" width="60" height="30" as="geometry" />
        </mxCell>
        <mxCell id="1DaiOdLd6T580_-Mj7Hy-31" value="volume&lt;br&gt;mount" style="text;html=1;strokeColor=none;fillColor=none;align=left;verticalAlign=middle;whiteSpace=wrap;rounded=0;" parent="1" vertex="1">
          <mxGeometry x="710" y="330" width="60" height="30" as="geometry" />
        </mxCell>
      </root>
    </mxGraphModel>
  </diagram>
</mxfile>
